<?xml version="1.0" encoding="utf-8"?>
<!-- Generator: Adobe Illustrator 18.0.0, SVG Export Plug-In . SVG Version: 6.00 Build 0)  -->
<!DOCTYPE svg PUBLIC "-//W3C//DTD SVG 1.1//EN" "http://www.w3.org/Graphics/SVG/1.1/DTD/svg11.dtd">
<svg version="1.1" id="Layer_1" xmlns="http://www.w3.org/2000/svg" xmlns:xlink="http://www.w3.org/1999/xlink" x="0px" y="0px"
	 viewBox="0 0 841.9 595.3" enable-background="new 0 0 841.9 595.3" xml:space="preserve">
<g id="XMLID_2_">
	<g id="XMLID_82_">
		<g id="XMLID_80_">
			<g id="XMLID_79_">
				<polygon id="XMLID_37_" fill="#F15E2F" points="379.2,349.1 348.6,366.8 372.2,407.5 402.7,389.8 				"/>
				<path id="XMLID_36_" fill="#F15E2F" d="M405.9,395.4L375.3,413c4.9,8.4,15.7,11.4,24.1,6.4C407.9,414.6,410.7,403.8,405.9,395.4
					L405.9,395.4z"/>
			</g>
			<g id="XMLID_75_">
				<path id="XMLID_39_" fill="#F15E2F" d="M361.4,353.5c-33.9,19.6-77.4,7.9-97.1-26c-19.6-33.9-7.9-77.4,26-97
					c33.9-19.6,77.5-7.9,97,26C407,290.4,395.2,333.9,361.4,353.5L361.4,353.5z"/>
				<path id="XMLID_31_" fill="#FFFFFF" d="M310.6,300.1L300,288.4c-2.2-2.4-5.9-2.6-8.3-0.4l0,0c-2.4,2.2-2.6,5.9-0.4,8.3l18.1,20
					c2.1,2.3,5.7,2.6,8.1,0.6l41.6-34.7c2.5-2.1,2.8-5.8,0.8-8.3l0,0c-2.1-2.5-5.8-2.8-8.3-0.8l-32.9,27.5
					C316.3,302.7,312.7,302.4,310.6,300.1z"/>
			</g>
		</g>
		<path id="XMLID_30_" d="M314.4,304.3"/>
		<g id="XMLID_81_">
			<path id="XMLID_40_" fill="#292865" d="M303.5,365c3.7,1.2,7.6,2,11.4,2.6c-5.7,15.9-20.8,27.4-38.6,27.4H170.5
				c-22.7,0-41.2-18.5-41.2-41.2V224.4c0-22.7,18.5-41.2,41.2-41.2h31.7c2.9-19.9,19.9-35.2,40.5-35.2h57.1
				c22.7,0,41.2,18.5,41.2,41.1v28c-3.8-0.8-7.7-1.3-11.8-1.5v-26.5c0-16.2-13.2-29.4-29.4-29.4h-57.1c-14.2,0-26.1,10.1-28.8,23.5
				h62.4c19.9,0,36.4,14.2,40.3,32.9c-3.9,0.5-7.7,1.3-11.5,2.4c-2.8-13.4-14.6-23.5-28.8-23.5H170.5c-16.2,0-29.4,13.2-29.4,29.4
				v129.3c0,16.2,13.2,29.4,29.4,29.4h105.8C288.5,383.2,299,375.7,303.5,365L303.5,365z"/>
			<g id="XMLID_74_">
				<g id="XMLID_71_">
					<g id="XMLID_67_">
						<path id="XMLID_35_" fill="#292865" d="M255.9,227.3h-69.4c-2.4,0-4.4,2-4.4,4.4l0,0c0,2.4,2,4.4,4.4,4.4h69.4
							c2.4,0,4.4-2,4.4-4.4l0,0C260.3,229.3,258.3,227.3,255.9,227.3z"/>
						<path id="XMLID_63_" fill="#292865" d="M215.7,220.3h-29.8c-1,0-1.9,0.8-1.9,1.9l0,0c0,1,0.8,1.9,1.9,1.9h29.8
							c1,0,1.9-0.8,1.9-1.9l0,0C217.6,221.2,216.7,220.3,215.7,220.3z"/>
					</g>
					<g id="XMLID_68_">
						<path id="XMLID_64_" fill="#292865" d="M210.6,262.5h-25.1c-0.9,0-1.6,0.7-1.6,1.6l0,0c0,0.9,0.7,1.6,1.6,1.6h25.1
							c0.9,0,1.6-0.7,1.6-1.6l0,0C212.2,263.2,211.5,262.5,210.6,262.5z"/>
						<path id="XMLID_34_" fill="#292865" d="M237.9,268.5h-51.5c-2.4,0-4.4,2-4.4,4.4l0,0c0,2.4,2,4.4,4.4,4.4h51.5
							c2.4,0,4.4-2,4.4-4.4l0,0C242.3,270.5,240.4,268.5,237.9,268.5z"/>
					</g>
					<g id="XMLID_69_">
						<path id="XMLID_65_" fill="#292865" d="M210.6,303.8h-25.1c-0.9,0-1.6,0.7-1.6,1.6l0,0c0,0.9,0.7,1.6,1.6,1.6h25.1
							c0.9,0,1.6-0.7,1.6-1.6l0,0C212.2,304.5,211.5,303.8,210.6,303.8z"/>
						<path id="XMLID_33_" fill="#292865" d="M186.4,318.5H238c2.4,0,4.4-2,4.4-4.4v0c0-2.4-2-4.4-4.4-4.4h-51.5
							c-2.4,0-4.4,2-4.4,4.4v0C182.1,316.5,184,318.5,186.4,318.5z"/>
					</g>
					<g id="XMLID_70_">
						<path id="XMLID_66_" fill="#292865" d="M215.7,338.5h-29.8c-1,0-1.9,0.8-1.9,1.9l0,0c0,1,0.8,1.9,1.9,1.9h29.8
							c1,0,1.9-0.8,1.9-1.9l0,0C217.6,339.3,216.7,338.5,215.7,338.5z"/>
						<path id="XMLID_32_" fill="#292865" d="M186.5,353.9h69.4c2.4,0,4.4-2,4.4-4.4l0,0c0-2.4-2-4.4-4.4-4.4h-69.4
							c-2.4,0-4.4,2-4.4,4.4l0,0C182.1,351.9,184,353.9,186.5,353.9z"/>
					</g>
				</g>
				<g id="XMLID_72_">
					<path id="XMLID_26_" fill="#292865" stroke="#292865" stroke-width="2.9821" stroke-miterlimit="10" d="M158.6,235.4l-2.3-3.4
						c-0.2-0.3-0.6-0.3-0.8,0l-0.8,1c-0.1,0.2-0.1,0.4,0,0.6l3.6,5.5c0.2,0.3,0.6,0.3,0.8,0.1l7.5-8.5c0.1-0.2,0.2-0.4,0.1-0.6
						l-0.7-1.1c-0.2-0.3-0.6-0.3-0.8-0.1l-5.9,6.7C159.1,235.7,158.8,235.7,158.6,235.4z"/>
					<path id="XMLID_27_" fill="#292865" stroke="#292865" stroke-width="2.9821" stroke-miterlimit="10" d="M158.6,276.6l-2.3-3.4
						c-0.2-0.3-0.6-0.3-0.8,0l-0.8,1c-0.1,0.2-0.1,0.4,0,0.6l3.6,5.5c0.2,0.3,0.6,0.3,0.8,0.1l7.5-8.5c0.1-0.2,0.2-0.4,0.1-0.6
						L166,270c-0.2-0.3-0.6-0.3-0.8-0.1l-5.9,6.7C159.1,276.9,158.8,276.8,158.6,276.6z"/>
					<path id="XMLID_29_" fill="#292865" stroke="#292865" stroke-width="2.9821" stroke-miterlimit="10" d="M158.6,317.7l-2.3-3.4
						c-0.2-0.3-0.6-0.3-0.8,0l-0.8,1c-0.1,0.2-0.1,0.4,0,0.6l3.6,5.5c0.2,0.3,0.6,0.3,0.8,0.1l7.5-8.5c0.1-0.2,0.2-0.4,0.1-0.6
						l-0.7-1.1c-0.2-0.3-0.6-0.3-0.8-0.1l-5.9,6.7C159.1,318,158.8,318,158.6,317.7z"/>
					<path id="XMLID_41_" fill="#292865" stroke="#292865" stroke-width="2.9821" stroke-miterlimit="10" d="M158.6,351.6l-2.3-3.4
						c-0.2-0.3-0.6-0.3-0.8,0l-0.8,1c-0.1,0.2-0.1,0.4,0,0.6l3.6,5.5c0.2,0.3,0.6,0.3,0.8,0.1l7.5-8.5c0.1-0.2,0.2-0.4,0.1-0.6
						L166,345c-0.2-0.3-0.6-0.3-0.8-0.1l-5.9,6.7C159.1,351.9,158.8,351.9,158.6,351.6z"/>
				</g>
			</g>
			<rect id="XMLID_28_" x="129.3" y="148" fill="none" width="278.6" height="279.2"/>
		</g>
	</g>
	<g id="XMLID_1_">
		<g id="XMLID_16_">
			<path id="XMLID_25_" fill="#292865" d="M478.5,326.3c0,8.6-2.6,15.3-7.7,20.2c-5.1,4.9-12,7.3-20.6,7.3h-44.5V207.7h44.5
				c8.7,0,15.5,2.5,20.6,7.4c5.1,5,7.7,11.7,7.7,20.3V326.3z M456.5,322.7v-84c0-8.2-4.3-12.2-12.8-12.2h-16.3v108.6h15.7
				C452.1,335.1,456.5,330.9,456.5,322.7z"/>
			<path id="XMLID_22_" fill="#292865" d="M555.1,353.9h-20.5v-3.3c-4.9,0.7-9.7,1.5-14.6,2.2c-6.4,0.9-11.2,1.4-14.5,1.4
				c-7.8,0-11.7-3.8-11.7-11.5v-34c0-7.8,4-11.7,12-11.7h28.9v-21.7h-20.5v13.4H495v-17.7c0-7.8,4-11.7,12-11.7h36.1
				c7.9,0,11.9,3.9,11.9,11.7V353.9z M534.8,336.9v-25.3h-20.5v26.1L534.8,336.9z"/>
			<path id="XMLID_20_" fill="#292865" d="M611.1,353.9h-23.7c-7.9,0-11.9-3.9-11.9-11.7v-64.4h-10.1v-18.2h10.1v-25.6h21.3v25.6
				h13.7v18.2h-13.7v57.9h14.3V353.9z"/>
			<path id="XMLID_17_" fill="#292865" d="M683.8,353.9h-20.5v-3.3c-4.9,0.7-9.7,1.5-14.6,2.2c-6.4,0.9-11.2,1.4-14.5,1.4
				c-7.8,0-11.7-3.8-11.7-11.5v-34c0-7.8,4-11.7,12-11.7h28.9v-21.7H643v13.4h-19.3v-17.7c0-7.8,4-11.7,12-11.7h36.1
				c7.9,0,11.9,3.9,11.9,11.7V353.9z M663.5,336.9v-25.3H643v26.1L663.5,336.9z"/>
		</g>
		<g id="XMLID_3_">
			<path id="XMLID_14_" fill="#F15E2F" d="M626.5,244.9c0,0.9-0.3,1.6-0.9,2.2c-0.6,0.6-1.3,0.9-2.3,0.9h-11.2
				c-0.9,0-1.6-0.3-2.2-0.9c-0.6-0.6-0.9-1.3-0.9-2.2v-37.3c0-0.9,0.3-1.6,0.9-2.2c0.6-0.6,1.3-0.9,2.2-0.9h11.2
				c0.9,0,1.7,0.3,2.3,0.9c0.6,0.6,0.9,1.3,0.9,2.2v10.1h-3.9V208h-9.7v36.6h9.7v-10.7h3.9V244.9z"/>
			<path id="XMLID_12_" fill="#F15E2F" d="M648.3,248h-3.7v-23.7l-8.1,0.2V248h-3.7v-43.5h3.7v17.2c1.5-0.2,2.9-0.4,4.4-0.6
				c1.9-0.2,3.3-0.4,4.4-0.4c2.1,0,3.1,1,3.1,3V248z"/>
			<path id="XMLID_8_" fill="#F15E2F" d="M669.4,244.9c0,2.1-1,3.1-3.1,3.1h-8.9c-2.1,0-3.1-1-3.1-3.1v-20.8c0-2.1,1-3.1,3.1-3.1
				h8.9c2.1,0,3.1,1,3.1,3.1v9.7l-1.3,1.3h-10.3v9.8h7.9V240h3.6V244.9z M665.8,232.2v-8.1h-7.9v8.1H665.8z"/>
			<path id="XMLID_6_" fill="#F15E2F" d="M690.5,244.9c0,2.1-1,3.1-3.1,3.1h-8.8c-2.1,0-3.1-1-3.1-3.1v-20.8c0-2.1,1-3.1,3.1-3.1
				h8.8c2.1,0,3.1,1,3.1,3.1v5.4h-3.6v-5.3h-7.7v20.5h7.7v-6h3.6V244.9z"/>
			<path id="XMLID_4_" fill="#F15E2F" d="M711.7,248h-4l-7.4-13.8V248h-3.7v-43.5h3.7v27.6l6.9-11.2h4v0.1l-7.9,11.9L711.7,248z"/>
		</g>
	</g>
</g>
</svg>
