<?xml version="1.0" encoding="utf-8"?>
<!-- Generator: Adobe Illustrator 18.0.0, SVG Export Plug-In . SVG Version: 6.00 Build 0)  -->
<!DOCTYPE svg PUBLIC "-//W3C//DTD SVG 1.1//EN" "http://www.w3.org/Graphics/SVG/1.1/DTD/svg11.dtd" [
	<!ENTITY ns_extend "http://ns.adobe.com/Extensibility/1.0/">
	<!ENTITY ns_ai "http://ns.adobe.com/AdobeIllustrator/10.0/">
	<!ENTITY ns_graphs "http://ns.adobe.com/Graphs/1.0/">
	<!ENTITY ns_vars "http://ns.adobe.com/Variables/1.0/">
	<!ENTITY ns_imrep "http://ns.adobe.com/ImageReplacement/1.0/">
	<!ENTITY ns_sfw "http://ns.adobe.com/SaveForWeb/1.0/">
	<!ENTITY ns_custom "http://ns.adobe.com/GenericCustomNamespace/1.0/">
	<!ENTITY ns_adobe_xpath "http://ns.adobe.com/XPath/1.0/">
]>
<svg version="1.1" id="Layer_1" xmlns:x="&ns_extend;" xmlns:i="&ns_ai;" xmlns:graph="&ns_graphs;"
	 xmlns="http://www.w3.org/2000/svg" xmlns:xlink="http://www.w3.org/1999/xlink" x="0px" y="0px" viewBox="0 95 960 451"
	 enable-background="new 0 95 960 451" xml:space="preserve">
<metadata>
	<sfw  xmlns="&ns_sfw;">
		<slices></slices>
		<sliceSourceBounds  width="959.9" height="460.2" y="5.8" x="-0.4" bottomLeftOrigin="true"></sliceSourceBounds>
	</sfw>
</metadata>
<g id="XMLID_2_">
	<g id="XMLID_82_">
		<g id="XMLID_80_">
			<g id="XMLID_79_">
				<polygon id="XMLID_37_" fill="#F15E2F" points="411.5,425.4 361.1,454.6 400,521.7 450.2,492.5 				"/>
				<path id="XMLID_36_" fill="#F15E2F" d="M455.5,501.7l-50.4,29c8.1,13.8,25.9,18.8,39.7,10.5
					C458.8,533.4,463.4,515.6,455.5,501.7L455.5,501.7z"/>
			</g>
			<g id="XMLID_75_">
				<path id="XMLID_39_" fill="#F15E2F" d="M382.2,432.7c-55.9,32.3-127.6,13-160-42.9c-32.3-55.9-13-127.6,42.9-159.9
					s127.7-13,159.9,42.9C457.3,328.7,437.9,400.4,382.2,432.7L382.2,432.7z"/>
				<path id="XMLID_31_" fill="#FFFFFF" d="M298.4,344.6L281,325.4c-3.6-4-9.7-4.3-13.7-0.7l0,0c-4,3.6-4.3,9.7-0.7,13.7l29.8,33
					c3.5,3.8,9.4,4.3,13.3,1l68.6-57.2c4.1-3.5,4.6-9.6,1.3-13.7l0,0c-3.5-4.1-9.6-4.6-13.7-1.3l-54.1,45.3
					C307.8,348.9,301.9,348.4,298.4,344.6z"/>
			</g>
		</g>
		<path id="XMLID_30_" d="M304.7,351.6"/>
		<g id="XMLID_81_">
			<path id="XMLID_40_" fill="#292865" d="M286.7,451.6c6.1,2,12.5,3.3,18.8,4.3c-9.4,26.2-34.3,45.2-63.6,45.2H67.5
				c-37.4,0-67.9-30.5-67.9-67.9V219.9c0-37.4,30.5-67.9,67.9-67.9h52.2c4.8-32.8,32.8-58,66.7-58h94.1c37.4,0,67.9,30.5,67.9,67.7
				v46.1c-6.3-1.3-12.7-2.1-19.4-2.5v-43.7c0-26.7-21.8-48.5-48.5-48.5h-94.1c-23.4,0-43,16.6-47.5,38.7h102.8
				c32.8,0,60,23.4,66.4,54.2c-6.4,0.8-12.7,2.1-19,4c-4.6-22.1-24.1-38.7-47.5-38.7H67.5c-26.7,0-48.5,21.8-48.5,48.5v213.1
				c0,26.7,21.8,48.5,48.5,48.5h174.4C262,481.6,279.3,469.2,286.7,451.6L286.7,451.6z"/>
			<g id="XMLID_74_">
				<g id="XMLID_71_">
					<g id="XMLID_67_">
						<path id="XMLID_35_" fill="#292865" d="M208.3,224.7H93.9c-4,0-7.3,3.3-7.3,7.3l0,0c0,4,3.3,7.3,7.3,7.3h114.4
							c4,0,7.3-3.3,7.3-7.3l0,0C215.5,228,212.3,224.7,208.3,224.7z"/>
						<path id="XMLID_63_" fill="#292865" d="M142,213.1H92.9c-1.6,0-3.1,1.3-3.1,3.1l0,0c0,1.6,1.3,3.1,3.1,3.1H142
							c1.6,0,3.1-1.3,3.1-3.1l0,0C145.2,214.6,143.7,213.1,142,213.1z"/>
					</g>
					<g id="XMLID_68_">
						<path id="XMLID_64_" fill="#292865" d="M133.6,282.7H92.3c-1.5,0-2.6,1.2-2.6,2.6l0,0c0,1.5,1.2,2.6,2.6,2.6h41.4
							c1.5,0,2.6-1.2,2.6-2.6l0,0C136.3,283.8,135.1,282.7,133.6,282.7z"/>
						<path id="XMLID_34_" fill="#292865" d="M178.6,292.6H93.8c-4,0-7.3,3.3-7.3,7.3l0,0c0,4,3.3,7.3,7.3,7.3h84.9
							c4,0,7.3-3.3,7.3-7.3l0,0C185.9,295.9,182.8,292.6,178.6,292.6z"/>
					</g>
					<g id="XMLID_69_">
						<path id="XMLID_65_" fill="#292865" d="M133.6,350.7H92.3c-1.5,0-2.6,1.2-2.6,2.6l0,0c0,1.5,1.2,2.6,2.6,2.6h41.4
							c1.5,0,2.6-1.2,2.6-2.6l0,0C136.3,351.9,135.1,350.7,133.6,350.7z"/>
						<path id="XMLID_33_" fill="#292865" d="M93.8,375h85c4,0,7.3-3.3,7.3-7.3l0,0c0-4-3.3-7.3-7.3-7.3H93.9c-4,0-7.3,3.3-7.3,7.3
							l0,0C86.7,371.7,89.8,375,93.8,375z"/>
					</g>
					<g id="XMLID_70_">
						<path id="XMLID_66_" fill="#292865" d="M142,407.9H92.9c-1.6,0-3.1,1.3-3.1,3.1l0,0c0,1.6,1.3,3.1,3.1,3.1H142
							c1.6,0,3.1-1.3,3.1-3.1l0,0C145.2,409.3,143.7,407.9,142,407.9z"/>
						<path id="XMLID_32_" fill="#292865" d="M93.9,433.3h114.4c4,0,7.3-3.3,7.3-7.3l0,0c0-4-3.3-7.3-7.3-7.3H93.9
							c-4,0-7.3,3.3-7.3,7.3l0,0C86.7,430,89.8,433.3,93.9,433.3z"/>
					</g>
				</g>
				<g id="XMLID_72_">
					<path id="XMLID_26_" fill="#292865" stroke="#292865" stroke-width="2.9821" stroke-miterlimit="10" d="M47.9,238l-3.8-5.6
						c-0.3-0.5-1-0.5-1.3,0l-1.3,1.6c-0.2,0.3-0.2,0.7,0,1l5.9,9.1c0.3,0.5,1,0.5,1.3,0.2l12.4-14c0.2-0.3,0.3-0.7,0.2-1l-1.2-1.8
						c-0.3-0.5-1-0.5-1.3-0.2l-9.7,11C48.8,238.5,48.3,238.5,47.9,238z"/>
					<path id="XMLID_27_" fill="#292865" stroke="#292865" stroke-width="2.9821" stroke-miterlimit="10" d="M47.9,305.9l-3.8-5.6
						c-0.3-0.5-1-0.5-1.3,0l-1.3,1.6c-0.2,0.3-0.2,0.7,0,1l5.9,9.1c0.3,0.5,1,0.5,1.3,0.2l12.4-14c0.2-0.3,0.3-0.7,0.2-1l-1.2-2.1
						c-0.3-0.5-1-0.5-1.3-0.2l-9.7,11C48.8,306.4,48.3,306.2,47.9,305.9z"/>
					<path id="XMLID_29_" fill="#292865" stroke="#292865" stroke-width="2.9821" stroke-miterlimit="10" d="M47.9,373.7l-3.8-5.6
						c-0.3-0.5-1-0.5-1.3,0l-1.3,1.6c-0.2,0.3-0.2,0.7,0,1l5.9,9.1c0.3,0.5,1,0.5,1.3,0.2l12.4-14c0.2-0.3,0.3-0.7,0.2-1l-1.2-1.8
						c-0.3-0.5-1-0.5-1.3-0.2l-9.7,11C48.8,374.1,48.3,374.1,47.9,373.7z"/>
					<path id="XMLID_41_" fill="#292865" stroke="#292865" stroke-width="2.9821" stroke-miterlimit="10" d="M47.9,429.5l-3.8-5.6
						c-0.3-0.5-1-0.5-1.3,0l-1.3,1.6c-0.2,0.3-0.2,0.7,0,1l5.9,9.1c0.3,0.5,1,0.5,1.3,0.2l12.4-14c0.2-0.3,0.3-0.7,0.2-1l-1.2-2.1
						c-0.3-0.5-1-0.5-1.3-0.2l-9.7,11C48.8,430,48.3,430,47.9,429.5z"/>
				</g>
			</g>
			<rect id="XMLID_28_" x="-0.4" y="94" fill="none" width="459.2" height="460.2"/>
		</g>
	</g>
	<g id="XMLID_1_">
		<g id="XMLID_16_">
			<path id="XMLID_25_" fill="#292865" d="M575.2,387.8c0,14.2-4.3,25.2-12.7,33.3c-8.4,8.1-19.8,12-34,12h-73.3V192.4h73.3
				c14.3,0,25.5,4.1,34,12.2c8.4,8.2,12.7,19.3,12.7,33.5V387.8z M538.9,381.9V243.5c0-13.5-7.1-20.1-21.1-20.1h-26.9v179h25.9
				C531.7,402.3,538.9,395.4,538.9,381.9z"/>
			<path id="XMLID_22_" fill="#292865" d="M701.4,433.3h-33.8v-5.4c-8.1,1.2-16,2.5-24.1,3.6c-10.5,1.5-18.5,2.3-23.9,2.3
				c-12.9,0-19.3-6.3-19.3-19v-56c0-12.9,6.6-19.3,19.8-19.3h47.6v-35.8H634v22.1h-31.6v-29.2c0-12.9,6.6-19.3,19.8-19.3h59.5
				c13,0,19.6,6.4,19.6,19.3v136.6L701.4,433.3L701.4,433.3z M668,405.3v-41.7h-33.8v43L668,405.3z"/>
			<path id="XMLID_20_" fill="#292865" d="M793.7,433.3h-39.1c-13,0-19.6-6.4-19.6-19.3V307.9h-16.6v-30H735v-42.2h35.1v42.2h22.6
				v30h-22.6v95.4h23.6L793.7,433.3L793.7,433.3z"/>
			<path id="XMLID_17_" fill="#292865" d="M913.5,433.3h-33.8v-5.4c-8.1,1.2-16,2.5-24.1,3.6c-10.5,1.5-18.5,2.3-23.9,2.3
				c-12.9,0-19.3-6.3-19.3-19v-56c0-12.9,6.6-19.3,19.8-19.3h47.6v-35.8h-33.6v22.1h-31.8v-29.2c0-12.9,6.6-19.3,19.8-19.3h59.5
				c13,0,19.6,6.4,19.6,19.3v136.6L913.5,433.3L913.5,433.3z M880.1,405.3v-41.7h-33.8v43L880.1,405.3z"/>
		</g>
		<g id="XMLID_3_">
			<path id="XMLID_14_" fill="#F15E2F" d="M819.1,253.7c0,1.5-0.5,2.6-1.5,3.6s-2.1,1.5-3.8,1.5h-18.5c-1.5,0-2.6-0.5-3.6-1.5
				s-1.5-2.1-1.5-3.6v-61.5c0-1.5,0.5-2.6,1.5-3.6s2.1-1.5,3.6-1.5h18.5c1.5,0,2.8,0.5,3.8,1.5s1.5,2.1,1.5,3.6v16.6h-6.4v-16h-16
				v60.3h16v-17.6h6.4V253.7z"/>
			<path id="XMLID_12_" fill="#F15E2F" d="M855,258.8h-6.1v-39.1l-13.3,0.3v38.7h-6.1V187h6.1v28.3c2.5-0.3,4.8-0.7,7.3-1
				c3.1-0.3,5.4-0.7,7.3-0.7c3.5,0,5.1,1.6,5.1,4.9v40H855V258.8z"/>
			<path id="XMLID_8_" fill="#F15E2F" d="M889.8,253.7c0,3.5-1.6,5.1-5.1,5.1H870c-3.5,0-5.1-1.6-5.1-5.1v-34.3
				c0-3.5,1.6-5.1,5.1-5.1h14.7c3.5,0,5.1,1.6,5.1,5.1v16l-2.1,2.1h-17v16.2h13v-8.1h5.9v8.1H889.8z M883.9,232.7v-13.3h-13v13.3
				H883.9z"/>
			<path id="XMLID_6_" fill="#F15E2F" d="M924.6,253.7c0,3.5-1.6,5.1-5.1,5.1H905c-3.5,0-5.1-1.6-5.1-5.1v-34.3
				c0-3.5,1.6-5.1,5.1-5.1h14.5c3.5,0,5.1,1.6,5.1,5.1v8.9h-5.9v-8.7H906v33.8h12.7v-9.9h5.9V253.7z"/>
			<path id="XMLID_4_" fill="#F15E2F" d="M959.5,258.8h-6.6l-12.2-22.7v22.7h-6.1v-71.7h6.1v45.5l11.4-18.5h6.6v0.2l-13,19.6
				L959.5,258.8z"/>
		</g>
	</g>
</g>
</svg>
