<?xml version="1.0" encoding="utf-8"?>
<!-- Generator: Adobe Illustrator 18.0.0, SVG Export Plug-In . SVG Version: 6.00 Build 0)  -->
<!DOCTYPE svg PUBLIC "-//W3C//DTD SVG 1.1//EN" "http://www.w3.org/Graphics/SVG/1.1/DTD/svg11.dtd" [
	<!ENTITY ns_extend "http://ns.adobe.com/Extensibility/1.0/">
	<!ENTITY ns_ai "http://ns.adobe.com/AdobeIllustrator/10.0/">
	<!ENTITY ns_graphs "http://ns.adobe.com/Graphs/1.0/">
	<!ENTITY ns_vars "http://ns.adobe.com/Variables/1.0/">
	<!ENTITY ns_imrep "http://ns.adobe.com/ImageReplacement/1.0/">
	<!ENTITY ns_sfw "http://ns.adobe.com/SaveForWeb/1.0/">
	<!ENTITY ns_custom "http://ns.adobe.com/GenericCustomNamespace/1.0/">
	<!ENTITY ns_adobe_xpath "http://ns.adobe.com/XPath/1.0/">
]>
<svg version="1.1" id="Layer_1" xmlns:x="&ns_extend;" xmlns:i="&ns_ai;" xmlns:graph="&ns_graphs;"
	 xmlns="http://www.w3.org/2000/svg" xmlns:xlink="http://www.w3.org/1999/xlink" x="0px" y="0px" viewBox="292 0 389 560"
	 enable-background="new 292 0 389 560" xml:space="preserve">
<metadata>
	<sfw  xmlns="&ns_sfw;">
		<slices></slices>
		<sliceSourceBounds  height="558.9" width="386.4" y="1.1" x="295.5" bottomLeftOrigin="true"></sliceSourceBounds>
	</sfw>
</metadata>
<g id="XMLID_2_">
	<g id="XMLID_1_">
		<g id="XMLID_20_">
			<g>
				<path fill="#2A2765" d="M369.3,558.6h-17.7v-60.4c0-3.3,0.5-7.6,1.2-13.1l-15.6,62.5h-9.3L312,484.9c0.8,5.8,1.2,10.4,1.2,13.1
					v60.4h-17.7V436h17.4l19.4,67.7c0.2,0.8,0.5,2.6,0.5,5.5c0-1.2,0.2-3.2,0.5-5.5l19.4-67.7H370L369.3,558.6L369.3,558.6z"/>
				<path fill="#2A2765" d="M434,558.6h-17.2V556c-4,0.6-8.2,1.2-12.2,1.8c-5.4,0.9-9.4,1.2-12.1,1.2c-6.4,0-9.8-3.3-9.8-9.6v-28.4
					c0-6.4,3.5-9.8,10.2-9.8h24.3V493h-17.2v11.3h-16.2v-14.8c0-6.4,3.5-9.8,10.2-9.8h30.2c6.6,0,10.1,3.3,10.1,9.8L434,558.6
					L434,558.6z M416.9,544.4v-21.2h-17.2V545L416.9,544.4z"/>
				<path fill="#2A2765" d="M496.7,512.7h-17.8v-18l-14.2,0.3v63.6h-17.8v-79h17.8v3c3.6-0.8,7.3-1.4,11-2c4.3-0.9,8.2-1.2,11.1-1.2
					c6.4,0,9.8,3.3,9.8,9.6L496.7,512.7L496.7,512.7z"/>
				<path fill="#2A2765" d="M559.4,558.6h-19.2l-15.7-36.2v36.2h-17.8V436.1h17.8v73.5l14.2-30.1h18.7v0.3l-18.1,36L559.4,558.6z"/>
				<path fill="#2A2765" d="M618.3,548.9c0,6.4-3.5,9.8-10.2,9.8h-31c-6.7,0-10.2-3.3-10.2-9.8v-59.5c0-6.4,3.5-9.8,10.2-9.8h31
					c6.7,0,10.2,3.3,10.2,9.8v29l-4.9,4.9h-29v22.1h16.8v-13h17.2V548.9z M601.2,511.6v-18.9h-16.8v18.9H601.2z"/>
				<path fill="#2A2765" d="M665.4,558.6h-19.9c-6.6,0-10.1-3.3-10.1-9.8v-53.9h-8.4v-15.4h8.4v-21.2h17.8v21.4h11.6V495h-11.6v48.7
					h12L665.4,558.6L665.4,558.6z"/>
			</g>
		</g>
		<g id="XMLID_3_">
			<path id="XMLID_16_" fill="#F15D2F" d="M570.7,446.6c0,1.2-0.5,2.1-1.2,3c-0.8,0.8-1.7,1.2-3,1.2h-14.7c-1.2,0-2.1-0.5-3-1.2
				c-0.8-0.8-1.2-1.7-1.2-3v-48.7c0-1.2,0.5-2.1,1.2-3c0.8-0.8,1.7-1.2,3-1.2h14.7c1.2,0,2.1,0.5,3,1.2c0.8,0.8,1.2,1.7,1.2,3v13.1
				h-5.1v-12.8h-12.7v47.9h12.7v-13.9h5.1V446.6z"/>
			<path id="XMLID_13_" fill="#F15D2F" d="M599.2,450.6h-4.8v-31l-10.7,0.3v30.7h-4.8v-56.7h4.8v22.6c2-0.3,3.8-0.5,5.8-0.8
				c2.4-0.3,4.3-0.5,5.7-0.5c2.7,0,4,1.2,4,3.9L599.2,450.6L599.2,450.6z"/>
			<path id="XMLID_10_" fill="#F15D2F" d="M626.7,446.5c0,2.7-1.4,4-4,4h-11.6c-2.7,0-4-1.4-4-4v-27.1c0-2.7,1.4-4,4-4h11.6
				c2.7,0,4,1.4,4,4v12.7l-1.7,1.7h-13.3v12.8h10.5v-6.4h4.6L626.7,446.5L626.7,446.5L626.7,446.5z M622,430v-10.7h-10.5V430H622z"
				/>
			<path id="XMLID_8_" fill="#F15D2F" d="M654.2,446.5c0,2.7-1.4,4-4,4h-11.4c-2.7,0-4-1.4-4-4v-27.1c0-2.7,1.4-4,4-4h11.4
				c2.7,0,4,1.4,4,4v7h-4.8v-6.9h-10.1v26.8h10.1v-7.9h4.8V446.5z"/>
			<path id="XMLID_6_" fill="#F15D2F" d="M681.9,450.6h-5.2l-9.8-18v18H662v-56.7h4.8v36l9-14.7h5.2v0.2L670.7,431L681.9,450.6z"/>
		</g>
	</g>
	<g id="XMLID_5_">
		<path id="XMLID_94_" fill="#2A2765" d="M628.4,0H342.5c-17.1,0-30.8,13.7-30.8,30.8v228.4c0,17.1,13.7,30.8,30.8,30.8h94.7v26.1
			H410c-12.1,0-22,9.9-22,22v8.5c0,12.1,9.9,22,22,22h151c12.1,0,22-9.9,22-22v-8.5c0-12.1-9.9-22-22-22h-27.3v-25.9h94.7
			c17.1,0,30.8-13.7,30.8-30.8V30.8C659.3,13.7,645.3,0,628.4,0z M342.5,17.1h285.9c7.6,0,13.6,6.1,13.6,13.6v169.8H328.8V30.8
			C328.8,23.3,335,17.1,342.5,17.1z M561.1,333.3c2.6,0,4.8,2.3,4.8,4.8v8.5c0,2.6-2.3,4.8-4.8,4.8H409.9c-2.6,0-4.8-2.3-4.8-4.8
			v-8.5c0-2.6,2.3-4.8,4.8-4.8h27.3h96.4H561.1z M516.4,316.1h-61.9v-25.9h61.9V316.1z M628.4,273h-94.7h-96.4h-94.7
			c-7.6,0-13.6-6.1-13.6-13.6v-41.6h313.2v41.5C642.2,266.8,636,273,628.4,273z"/>
		<g id="XMLID_4_">
			<circle id="XMLID_93_" fill="#F15D2F" cx="485.5" cy="247" r="13"/>
			<path id="XMLID_92_" fill="#F15D2F" d="M622.1,197.4h-16.5c-3.8,0-6.9-3.2-6.9-6.9V62.4c0-3.8,3.2-6.9,6.9-6.9h16.5
				c3.8,0,6.9,3.2,6.9,6.9v128.1C629.2,194.5,626.1,197.4,622.1,197.4z"/>
			<path id="XMLID_91_" fill="#F15D2F" d="M579.8,197.4H562c-3.6,0-6.3-2.9-6.3-6.3V85.9c0-3.6,2.9-6.3,6.3-6.3h17.8
				c3.6,0,6.3,2.9,6.3,6.3v105.2C586.1,194.8,583.1,197.4,579.8,197.4z"/>
			<path id="XMLID_90_" fill="#F15D2F" d="M537.1,197.4h-18.7c-3.3,0-5.8-2.7-5.8-5.8v-89.1c0-3.3,2.7-5.8,5.8-5.8h18.7
				c3.3,0,5.8,2.7,5.8,5.8v89.1C542.8,194.9,540.2,197.4,537.1,197.4z"/>
			<path id="XMLID_89_" fill="#F15D2F" d="M494.3,197.4h-19.5c-3,0-5.5-2.4-5.5-5.5v-77.7c0-3,2.4-5.5,5.5-5.5h19.5
				c3,0,5.5,2.4,5.5,5.5v77.7C499.8,195.1,497.3,197.4,494.3,197.4z"/>
			<path id="XMLID_88_" fill="#F15D2F" d="M451.7,197.4h-20.3c-2.9,0-5.1-2.3-5.1-5.1v-64.7c0-2.9,2.3-5.1,5.1-5.1h20.3
				c2.9,0,5.1,2.3,5.1,5.1v64.7C456.8,195.2,454.5,197.4,451.7,197.4z"/>
			<path id="XMLID_86_" fill="#F15D2F" d="M409.2,197.4h-21.5c-2.6,0-4.4-2-4.4-4.4v-50c0-2.6,2-4.4,4.4-4.4h21.5
				c2.6,0,4.4,2,4.4,4.4v50C413.6,195.4,411.7,197.4,409.2,197.4z"/>
			<path id="XMLID_85_" fill="#F15D2F" d="M366.6,197.4H344c-2.1,0-3.8-1.7-3.8-3.8V157c0-2.1,1.7-3.8,3.8-3.8h22.6
				c2.1,0,3.8,1.7,3.8,3.8v36.6C370.6,195.7,368.7,197.4,366.6,197.4z"/>
			<path id="XMLID_84_" fill="#F15D2F" d="M563.1,25.7l-0.6,1.8c-0.9,2.7,0.6,5.7,3.5,6.4l6.6,2.1l-229.4,96.6
				c-2.7,1.2-3.9,4.1-2.9,6.7l0,0c1.2,2.7,4.1,3.9,6.7,2.9l229.8-96.7l-2,6c-0.9,2.7,0.6,5.7,3.5,6.4l1.8,0.6
				c2.7,0.9,5.7-0.6,6.4-3.5l6.4-20c0.9-2.7-0.6-5.7-3.5-6.4l-20.1-6.4C566.8,21.5,564,23,563.1,25.7z"/>
			<path id="XMLID_15_" fill="#2A2765" d="M406.4,24.5h-55.2c-3.8,0-6.7,3.2-6.7,6.7v55.2c0,3.8,3.2,6.7,6.7,6.7h55.2
				c3.8,0,6.7-3.2,6.7-6.7V31.3C413.3,27.7,410.2,24.5,406.4,24.5z M399.7,79.8H375V59c0-3.8-3.2-6.7-6.7-6.7s-6.7,3.2-6.7,6.7v20.8
				h-3.5V38.1h23.2v15.1c0,3.8,3.2,6.7,6.7,6.7c3.8,0,6.7-3.2,6.7-6.7V38.1h4.8L399.7,79.8L399.7,79.8z"/>
		</g>
	</g>
</g>
</svg>
