<?xml version="1.0" encoding="utf-8"?>
<!-- Generator: Adobe Illustrator 18.0.0, SVG Export Plug-In . SVG Version: 6.00 Build 0)  -->
<!DOCTYPE svg PUBLIC "-//W3C//DTD SVG 1.1//EN" "http://www.w3.org/Graphics/SVG/1.1/DTD/svg11.dtd" [
	<!ENTITY ns_extend "http://ns.adobe.com/Extensibility/1.0/">
	<!ENTITY ns_ai "http://ns.adobe.com/AdobeIllustrator/10.0/">
	<!ENTITY ns_graphs "http://ns.adobe.com/Graphs/1.0/">
	<!ENTITY ns_vars "http://ns.adobe.com/Variables/1.0/">
	<!ENTITY ns_imrep "http://ns.adobe.com/ImageReplacement/1.0/">
	<!ENTITY ns_sfw "http://ns.adobe.com/SaveForWeb/1.0/">
	<!ENTITY ns_custom "http://ns.adobe.com/GenericCustomNamespace/1.0/">
	<!ENTITY ns_adobe_xpath "http://ns.adobe.com/XPath/1.0/">
]>
<svg version="1.1" id="Layer_1" xmlns:x="&ns_extend;" xmlns:i="&ns_ai;" xmlns:graph="&ns_graphs;"
	 xmlns="http://www.w3.org/2000/svg" xmlns:xlink="http://www.w3.org/1999/xlink" x="0px" y="0px" viewBox="352 83 260 385"
	 enable-background="new 352 83 260 385" xml:space="preserve">
<metadata>
	<sfw  xmlns="&ns_sfw;">
		<slices></slices>
		<sliceSourceBounds  height="373.5" width="258.1" y="98.8" x="353.1" bottomLeftOrigin="true"></sliceSourceBounds>
	</sfw>
</metadata>
<g id="XMLID_2_">
	<g id="XMLID_1_">
		<g id="XMLID_20_">
			<g>
				<path fill="#2A2765" d="M402.4,461h-11.8v-40.4c0-2.2,0.3-5.1,0.8-8.8l-10.5,41.8h-6.2l-10.6-41.8c0.5,3.9,0.8,6.9,0.8,8.8V461
					h-11.8v-81.8h11.6l12.9,45.2c0.1,0.5,0.3,1.7,0.3,3.7c0-0.8,0.1-2.1,0.3-3.7l12.9-45.2h11.6L402.4,461L402.4,461z"/>
				<path fill="#2A2765" d="M445.6,461h-11.5v-1.8c-2.7,0.4-5.5,0.8-8.2,1.2c-3.6,0.6-6.3,0.8-8.1,0.8c-4.3,0-6.5-2.2-6.5-6.4v-19
					c0-4.3,2.3-6.5,6.8-6.5h16.2v-12.1h-11.5v7.5H412v-9.9c0-4.3,2.3-6.5,6.8-6.5H439c4.4,0,6.7,2.2,6.7,6.5L445.6,461L445.6,461z
					 M434.2,451.5v-14.2h-11.5v14.6L434.2,451.5z"/>
				<path fill="#2A2765" d="M487.5,430.3h-11.9v-12l-9.5,0.2V461h-11.9v-52.8h11.9v2c2.4-0.5,4.9-0.9,7.3-1.3
					c2.9-0.6,5.5-0.8,7.4-0.8c4.3,0,6.5,2.2,6.5,6.4L487.5,430.3L487.5,430.3z"/>
				<path fill="#2A2765" d="M529.4,461h-12.8l-10.5-24.2V461h-11.9v-81.8h11.9v49.1l9.5-20.1h12.5v0.2l-12.1,24L529.4,461z"/>
				<path fill="#2A2765" d="M568.7,454.5c0,4.3-2.3,6.5-6.8,6.5h-20.7c-4.5,0-6.8-2.2-6.8-6.5v-39.7c0-4.3,2.3-6.5,6.8-6.5h20.7
					c4.5,0,6.8,2.2,6.8,6.5v19.4l-3.3,3.3H546v14.8h11.2v-8.7h11.5V454.5z M557.3,429.6V417h-11.2v12.6H557.3z"/>
				<path fill="#2A2765" d="M600.2,461h-13.3c-4.4,0-6.7-2.2-6.7-6.5v-36h-5.6v-10.3h5.6V394h11.9v14.3h7.7v10.2h-7.7v32.5h8
					L600.2,461L600.2,461z"/>
			</g>
		</g>
		<g id="XMLID_3_">
			<path id="XMLID_16_" fill="#F15D2F" d="M536.9,386.2c0,0.8-0.3,1.4-0.8,2c-0.5,0.5-1.1,0.8-2,0.8h-9.8c-0.8,0-1.4-0.3-2-0.8
				c-0.5-0.5-0.8-1.1-0.8-2v-32.5c0-0.8,0.3-1.4,0.8-2c0.5-0.5,1.1-0.8,2-0.8h9.8c0.8,0,1.4,0.3,2,0.8c0.5,0.5,0.8,1.1,0.8,2v8.8
				h-3.4v-8.6H525v32h8.5v-9.3h3.4V386.2z"/>
			<path id="XMLID_13_" fill="#F15D2F" d="M556,388.8h-3.2v-20.7l-7.1,0.2v20.5h-3.2v-37.9h3.2v15.1c1.3-0.2,2.5-0.3,3.9-0.5
				c1.6-0.2,2.9-0.3,3.8-0.3c1.8,0,2.7,0.8,2.7,2.6L556,388.8L556,388.8z"/>
			<path id="XMLID_10_" fill="#F15D2F" d="M574.3,386.1c0,1.8-0.9,2.7-2.7,2.7h-7.7c-1.8,0-2.7-0.9-2.7-2.7V368
				c0-1.8,0.9-2.7,2.7-2.7h7.7c1.8,0,2.7,0.9,2.7,2.7v8.5l-1.1,1.1h-8.9v8.6h7v-4.3h3.1V386.1z M571.2,375.1V368h-7v7.1H571.2z"/>
			<path id="XMLID_8_" fill="#F15D2F" d="M592.7,386.1c0,1.8-0.9,2.7-2.7,2.7h-7.6c-1.8,0-2.7-0.9-2.7-2.7V368
				c0-1.8,0.9-2.7,2.7-2.7h7.6c1.8,0,2.7,0.9,2.7,2.7v4.7h-3.2v-4.6h-6.7V386h6.7v-5.3h3.2V386.1z"/>
			<path id="XMLID_6_" fill="#F15D2F" d="M611.2,388.8h-3.5l-6.5-12v12H598v-37.9h3.2V375l6-9.8h3.5v0.1l-6.9,10.4L611.2,388.8z"/>
		</g>
	</g>
	<g id="XMLID_5_">
		<path id="XMLID_94_" fill="#2A2765" d="M575.5,87.8h-191c-11.4,0-20.6,9.2-20.6,20.6V261c0,11.4,9.2,20.6,20.6,20.6h63.3V299
			h-18.2c-8.1,0-14.7,6.6-14.7,14.7v5.7c0,8.1,6.6,14.7,14.7,14.7h100.9c8.1,0,14.7-6.6,14.7-14.7v-5.7c0-8.1-6.6-14.7-14.7-14.7
			h-18.2v-17.3h63.3c11.4,0,20.6-9.2,20.6-20.6V108.4C596.1,97,586.8,87.8,575.5,87.8z M384.5,99.2h191c5.1,0,9.1,4.1,9.1,9.1v113.4
			H375.3V108.4C375.3,103.4,379.5,99.2,384.5,99.2z M530.5,310.5c1.7,0,3.2,1.5,3.2,3.2v5.7c0,1.7-1.5,3.2-3.2,3.2H429.5
			c-1.7,0-3.2-1.5-3.2-3.2v-5.7c0-1.7,1.5-3.2,3.2-3.2h18.2h64.4H530.5z M500.7,299h-41.4v-17.3h41.4V299z M575.5,270.2h-63.3h-64.4
			h-63.3c-5.1,0-9.1-4.1-9.1-9.1v-27.8h209.2V261C584.7,266,580.5,270.2,575.5,270.2z"/>
		<g id="XMLID_4_">
			<circle id="XMLID_93_" fill="#F15D2F" cx="480" cy="252.8" r="8.7"/>
			<path id="XMLID_92_" fill="#F15D2F" d="M571.3,219.7h-11c-2.5,0-4.6-2.1-4.6-4.6v-85.6c0-2.5,2.1-4.6,4.6-4.6h11
				c2.5,0,4.6,2.1,4.6,4.6v85.6C576,217.7,573.9,219.7,571.3,219.7z"/>
			<path id="XMLID_91_" fill="#F15D2F" d="M543,219.7h-11.9c-2.4,0-4.2-1.9-4.2-4.2v-70.3c0-2.4,1.9-4.2,4.2-4.2H543
				c2.4,0,4.2,1.9,4.2,4.2v70.3C547.2,217.9,545.2,219.7,543,219.7z"/>
			<path id="XMLID_90_" fill="#F15D2F" d="M514.5,219.7H502c-2.2,0-3.9-1.8-3.9-3.9v-59.5c0-2.2,1.8-3.9,3.9-3.9h12.5
				c2.2,0,3.9,1.8,3.9,3.9v59.5C518.3,218,516.6,219.7,514.5,219.7z"/>
			<path id="XMLID_89_" fill="#F15D2F" d="M485.9,219.7h-13c-2,0-3.7-1.6-3.7-3.7v-51.9c0-2,1.6-3.7,3.7-3.7h13c2,0,3.7,1.6,3.7,3.7
				v51.9C489.5,218.1,487.9,219.7,485.9,219.7z"/>
			<path id="XMLID_88_" fill="#F15D2F" d="M457.4,219.7h-13.6c-1.9,0-3.4-1.5-3.4-3.4v-43.2c0-1.9,1.5-3.4,3.4-3.4h13.6
				c1.9,0,3.4,1.5,3.4,3.4v43.2C460.8,218.2,459.3,219.7,457.4,219.7z"/>
			<path id="XMLID_86_" fill="#F15D2F" d="M429,219.7h-14.4c-1.7,0-3-1.3-3-3v-33.4c0-1.7,1.3-3,3-3H429c1.7,0,3,1.3,3,3v33.4
				C432,218.3,430.7,219.7,429,219.7z"/>
			<path id="XMLID_85_" fill="#F15D2F" d="M400.6,219.7h-15.1c-1.4,0-2.5-1.1-2.5-2.5v-24.5c0-1.4,1.1-2.5,2.5-2.5h15.1
				c1.4,0,2.5,1.1,2.5,2.5v24.5C403.2,218.5,402,219.7,400.6,219.7z"/>
			<path id="XMLID_84_" fill="#F15D2F" d="M531.8,105l-0.4,1.2c-0.6,1.8,0.4,3.8,2.3,4.3l4.4,1.4l-153.3,64.5
				c-1.8,0.8-2.6,2.8-1.9,4.5l0,0c0.8,1.8,2.8,2.6,4.5,1.9l153.5-64.6l-1.3,4c-0.6,1.8,0.4,3.8,2.3,4.3l1.2,0.4
				c1.8,0.6,3.8-0.4,4.3-2.3l4.3-13.4c0.6-1.8-0.4-3.8-2.3-4.3l-13.4-4.3C534.3,102.2,532.4,103.2,531.8,105z"/>
			<path id="XMLID_15_" fill="#2A2765" d="M427.2,104.2h-36.9c-2.5,0-4.5,2.1-4.5,4.5v36.9c0,2.5,2.1,4.5,4.5,4.5h36.9
				c2.5,0,4.5-2.1,4.5-4.5v-36.9C431.8,106.3,429.7,104.2,427.2,104.2z M422.7,141.1h-16.5v-13.9c0-2.5-2.1-4.5-4.5-4.5
				s-4.5,2.1-4.5,4.5v13.9h-2.3v-27.8h15.5v10.1c0,2.5,2.1,4.5,4.5,4.5c2.5,0,4.5-2.1,4.5-4.5v-10.1h3.2L422.7,141.1L422.7,141.1z"
				/>
		</g>
	</g>
</g>
</svg>
