<?xml version="1.0" encoding="utf-8"?>
<!-- Generator: Adobe Illustrator 18.0.0, SVG Export Plug-In . SVG Version: 6.00 Build 0)  -->
<!DOCTYPE svg PUBLIC "-//W3C//DTD SVG 1.1//EN" "http://www.w3.org/Graphics/SVG/1.1/DTD/svg11.dtd">
<svg version="1.1" id="Layer_1" xmlns="http://www.w3.org/2000/svg" xmlns:xlink="http://www.w3.org/1999/xlink" x="0px" y="0px"
	 viewBox="0 0 841.9 595.3" enable-background="new 0 0 841.9 595.3" xml:space="preserve">
<g id="XMLID_2_">
	<g id="XMLID_1_">
		<g id="XMLID_20_">
			<g>
				<path fill="#2A2765" d="M338.5,490.1H326v-42.9c0-2.3,0.3-5.4,0.8-9.4l-11.2,44.4h-6.6l-11.3-44.4c0.5,4.1,0.8,7.3,0.8,9.4v42.9
					h-12.5v-87h12.3l13.7,48.1c0.1,0.5,0.3,1.8,0.3,3.9c0-0.9,0.1-2.2,0.3-3.9l13.7-48.1h12.3V490.1z"/>
				<path fill="#2A2765" d="M384.4,490.1h-12.2v-1.9c-2.9,0.4-5.8,0.9-8.7,1.3c-3.8,0.6-6.7,0.8-8.6,0.8c-4.6,0-6.9-2.3-6.9-6.8
					v-20.2c0-4.6,2.4-6.9,7.2-6.9h17.2v-12.9h-12.2v8h-11.5v-10.5c0-4.6,2.4-6.9,7.2-6.9h21.5c4.7,0,7.1,2.3,7.1,6.9V490.1z
					 M372.3,480v-15.1h-12.2v15.5L372.3,480z"/>
				<path fill="#2A2765" d="M428.9,457.4h-12.6v-12.8l-10.1,0.2v45.3h-12.7V434h12.7v2.1c2.6-0.5,5.2-1,7.8-1.4
					c3.1-0.6,5.8-0.8,7.9-0.8c4.6,0,6.9,2.3,6.9,6.8V457.4z"/>
				<path fill="#2A2765" d="M473.5,490.1h-13.6l-11.2-25.7v25.7H436v-87h12.7v52.2l10.1-21.4h13.3v0.2l-12.9,25.5L473.5,490.1z"/>
				<path fill="#2A2765" d="M515.2,483.1c0,4.6-2.4,6.9-7.2,6.9h-22c-4.8,0-7.2-2.3-7.2-6.9v-42.2c0-4.6,2.4-6.9,7.2-6.9h22
					c4.8,0,7.2,2.3,7.2,6.9v20.6l-3.5,3.5h-20.6v15.7h11.9v-9.3h12.2V483.1z M503.1,456.7v-13.4h-11.9v13.4H503.1z"/>
				<path fill="#2A2765" d="M548.7,490.1h-14.1c-4.7,0-7.1-2.3-7.1-6.9v-38.3h-6V434h6v-15.2h12.7V434h8.2v10.8h-8.2v34.5h8.5V490.1
					z"/>
			</g>
		</g>
		<g id="XMLID_3_">
			<path id="XMLID_16_" fill="#F15D2F" d="M481.4,410.5c0,0.8-0.3,1.5-0.8,2.1c-0.5,0.5-1.2,0.8-2.1,0.8h-10.4
				c-0.8,0-1.5-0.3-2.1-0.8c-0.5-0.5-0.8-1.2-0.8-2.1v-34.6c0-0.8,0.3-1.5,0.8-2.1c0.5-0.5,1.2-0.8,2.1-0.8h10.4
				c0.8,0,1.5,0.3,2.1,0.8c0.5,0.5,0.8,1.2,0.8,2.1v9.4h-3.6v-9.1h-9v34h9v-9.9h3.6V410.5z"/>
			<path id="XMLID_13_" fill="#F15D2F" d="M501.7,413.3h-3.4v-22l-7.5,0.2v21.8h-3.4V373h3.4V389c1.4-0.2,2.7-0.3,4.1-0.5
				c1.7-0.2,3.1-0.3,4-0.3c1.9,0,2.9,0.9,2.9,2.8V413.3z"/>
			<path id="XMLID_10_" fill="#F15D2F" d="M521.2,410.4c0,1.9-1,2.9-2.9,2.9h-8.2c-1.9,0-2.9-1-2.9-2.9v-19.2c0-1.9,1-2.9,2.9-2.9
				h8.2c1.9,0,2.9,1,2.9,2.9v9l-1.2,1.2h-9.5v9.1h7.4v-4.6h3.3V410.4z M517.9,398.7v-7.5h-7.4v7.5H517.9z"/>
			<path id="XMLID_8_" fill="#F15D2F" d="M540.8,410.4c0,1.9-1,2.9-2.9,2.9h-8.1c-1.9,0-2.9-1-2.9-2.9v-19.2c0-1.9,1-2.9,2.9-2.9
				h8.1c1.9,0,2.9,1,2.9,2.9v5h-3.4v-4.9h-7.1v19h7.1v-5.6h3.4V410.4z"/>
			<path id="XMLID_6_" fill="#F15D2F" d="M560.4,413.3h-3.7l-6.9-12.8v12.8h-3.4V373h3.4v25.6l6.4-10.4h3.7v0.1l-7.3,11.1
				L560.4,413.3z"/>
		</g>
	</g>
	<g id="XMLID_5_">
		<path id="XMLID_94_" fill="#2A2765" d="M522.5,93.3h-203c-12.1,0-21.9,9.8-21.9,21.9v162.3c0,12.1,9.8,21.9,21.9,21.9h67.3v18.4
			h-19.4c-8.6,0-15.6,7-15.6,15.6v6.1c0,8.6,7,15.6,15.6,15.6h107.3c8.6,0,15.6-7,15.6-15.6v-6.1c0-8.6-7-15.6-15.6-15.6h-19.4
			v-18.4h67.3c12.1,0,21.9-9.8,21.9-21.9V115.2C544.4,103.1,534.5,93.3,522.5,93.3z M319.4,105.5h203c5.4,0,9.7,4.4,9.7,9.7v120.5
			H309.7V115.2C309.7,109.9,314.1,105.5,319.4,105.5z M474.6,330.1c1.8,0,3.4,1.6,3.4,3.4v6.1c0,1.8-1.6,3.4-3.4,3.4H367.3
			c-1.8,0-3.4-1.6-3.4-3.4v-6.1c0-1.8,1.6-3.4,3.4-3.4h19.4h68.5H474.6z M443,317.8h-44v-18.4h44V317.8z M522.5,287.2h-67.3h-68.5
			h-67.3c-5.4,0-9.7-4.4-9.7-9.7v-29.6h222.4v29.6C532.2,282.8,527.8,287.2,522.5,287.2z"/>
		<g id="XMLID_4_">
			<circle id="XMLID_93_" fill="#F15D2F" cx="420.9" cy="268.7" r="9.2"/>
			<path id="XMLID_92_" fill="#F15D2F" d="M518,233.6h-11.7c-2.7,0-4.9-2.2-4.9-4.9v-91c0-2.7,2.2-4.9,4.9-4.9H518
				c2.7,0,4.9,2.2,4.9,4.9v91C523,231.4,520.8,233.6,518,233.6z"/>
			<path id="XMLID_91_" fill="#F15D2F" d="M487.9,233.6h-12.6c-2.5,0-4.5-2-4.5-4.5v-74.7c0-2.5,2-4.5,4.5-4.5h12.6
				c2.5,0,4.5,2,4.5,4.5v74.7C492.4,231.6,490.3,233.6,487.9,233.6z"/>
			<path id="XMLID_90_" fill="#F15D2F" d="M457.6,233.6h-13.3c-2.3,0-4.1-1.9-4.1-4.1v-63.2c0-2.3,1.9-4.1,4.1-4.1h13.3
				c2.3,0,4.1,1.9,4.1,4.1v63.2C461.7,231.7,459.9,233.6,457.6,233.6z"/>
			<path id="XMLID_89_" fill="#F15D2F" d="M427.2,233.6h-13.8c-2.1,0-3.9-1.7-3.9-3.9v-55.2c0-2.1,1.7-3.9,3.9-3.9h13.8
				c2.1,0,3.9,1.7,3.9,3.9v55.2C431.1,231.8,429.4,233.6,427.2,233.6z"/>
			<path id="XMLID_88_" fill="#F15D2F" d="M396.9,233.6h-14.5c-2,0-3.6-1.6-3.6-3.6v-45.9c0-2,1.6-3.6,3.6-3.6h14.5
				c2,0,3.6,1.6,3.6,3.6V230C400.5,232,398.9,233.6,396.9,233.6z"/>
			<path id="XMLID_86_" fill="#F15D2F" d="M366.7,233.6h-15.3c-1.8,0-3.2-1.4-3.2-3.2v-35.5c0-1.8,1.4-3.2,3.2-3.2h15.3
				c1.8,0,3.2,1.4,3.2,3.2v35.5C369.9,232.1,368.5,233.6,366.7,233.6z"/>
			<path id="XMLID_85_" fill="#F15D2F" d="M336.5,233.6h-16.1c-1.5,0-2.7-1.2-2.7-2.7v-26c0-1.5,1.2-2.7,2.7-2.7h16.1
				c1.5,0,2.7,1.2,2.7,2.7v26C339.3,232.3,338,233.6,336.5,233.6z"/>
			<path id="XMLID_84_" fill="#F15D2F" d="M476,111.6l-0.4,1.3c-0.6,1.9,0.4,4,2.4,4.6l4.7,1.5l-163,68.6c-1.9,0.8-2.8,3-2,4.8h0
				c0.8,1.9,3,2.8,4.8,2l163.2-68.7l-1.4,4.2c-0.6,1.9,0.4,4,2.4,4.6l1.3,0.4c1.9,0.6,4-0.4,4.6-2.4l4.6-14.2c0.6-1.9-0.4-4-2.4-4.6
				l-14.2-4.6C478.7,108.6,476.6,109.7,476,111.6z"/>
			<path id="XMLID_15_" fill="#2A2765" d="M364.8,110.8h-39.2c-2.7,0-4.8,2.2-4.8,4.8v39.2c0,2.7,2.2,4.8,4.8,4.8h39.2
				c2.7,0,4.8-2.2,4.8-4.8v-39.2C369.7,113,367.5,110.8,364.8,110.8z M360,150h-17.5v-14.8c0-2.7-2.2-4.8-4.8-4.8s-4.8,2.2-4.8,4.8
				V150h-2.4v-29.6H347v10.7c0,2.7,2.2,4.8,4.8,4.8c2.7,0,4.8-2.2,4.8-4.8v-10.7h3.4V150z"/>
		</g>
	</g>
</g>
</svg>
