<?xml version="1.0" encoding="utf-8"?>
<!-- Generator: Adobe Illustrator 18.0.0, SVG Export Plug-In . SVG Version: 6.00 Build 0)  -->
<!DOCTYPE svg PUBLIC "-//W3C//DTD SVG 1.1//EN" "http://www.w3.org/Graphics/SVG/1.1/DTD/svg11.dtd" [
	<!ENTITY ns_extend "http://ns.adobe.com/Extensibility/1.0/">
	<!ENTITY ns_ai "http://ns.adobe.com/AdobeIllustrator/10.0/">
	<!ENTITY ns_graphs "http://ns.adobe.com/Graphs/1.0/">
	<!ENTITY ns_vars "http://ns.adobe.com/Variables/1.0/">
	<!ENTITY ns_imrep "http://ns.adobe.com/ImageReplacement/1.0/">
	<!ENTITY ns_sfw "http://ns.adobe.com/SaveForWeb/1.0/">
	<!ENTITY ns_custom "http://ns.adobe.com/GenericCustomNamespace/1.0/">
	<!ENTITY ns_adobe_xpath "http://ns.adobe.com/XPath/1.0/">
]>
<svg version="1.1" id="Layer_1" xmlns:x="&ns_extend;" xmlns:i="&ns_ai;" xmlns:graph="&ns_graphs;"
	 xmlns="http://www.w3.org/2000/svg" xmlns:xlink="http://www.w3.org/1999/xlink" x="0px" y="0px" viewBox="0 146 960 426"
	 enable-background="new 0 146 960 426" xml:space="preserve">
<metadata>
	<sfw  xmlns="&ns_sfw;">
		<slices></slices>
		<sliceSourceBounds  width="959" height="427.4" y="-14.2" x="0" bottomLeftOrigin="true"></sliceSourceBounds>
	</sfw>
</metadata>
<g id="XMLID_2_">
	<g id="XMLID_41_">
		<path id="XMLID_10_" fill="#2A2765" d="M366.8,246.3c0,0-50.7-13.6-100.4-38.2c-43.8-21.7-82.7-61.3-82.7-61.3
			s-39.1,39.7-82.7,61.3C51.3,232.7,0.6,246.3,0.6,246.3S-9.3,345.9,51,450.1c57.7,99.9,132.8,124.1,132.8,124.1
			s75-24.2,132.8-124.1C376.6,345.9,366.8,246.3,366.8,246.3z"/>
		<g id="XMLID_22_">
			<path id="XMLID_45_" fill="#F15D2F" d="M254.5,450.8l-37.4-57.1c26.1-22.9,33.4-61.4,15.1-92.4c-20.8-35.5-67-47.5-103.2-27.2
				c-36.2,20.3-48.4,66-27.7,101.3c19.5,33.2,61.3,45.9,96.2,30.6l37.4,56.9c3.4,5.3,10.5,6.6,15.8,3.3l0.2-0.2
				C256.4,462.9,257.9,456,254.5,450.8z"/>
			<g id="XMLID_11_">
				<path id="XMLID_13_" fill="#2A2765" d="M211.8,331.4c-6.1,2.4-13.2,0.2-16.6-5.7c-3.4-5.7-1.8-13,3.4-17.1
					c-5.1-4.7-11.4-8.3-18.3-10.4c-0.9,6.3-6.6,11.3-13.4,11.3c-6.8,0-12.5-5-13.4-11.3c-6.9,2.1-13.1,5.6-18.3,10.4
					c5.2,4.1,6.8,11.3,3.4,17.1c-3.4,5.7-10.6,8.2-16.6,5.7c-0.8,3.3-1.2,6.8-1.2,10.4s0.5,7.1,1.2,10.4c6.1-2.4,13.2-0.2,16.6,5.7
					c3.4,5.7,1.8,13-3.4,17.1c5.1,4.7,11.4,8.3,18.3,10.4c0.9-6.3,6.6-11.3,13.4-11.3c6.8,0,12.5,5,13.4,11.3
					c6.9-2.1,13.1-5.6,18.3-10.4c-5.2-4.1-6.8-11.2-3.4-17.1c3.4-5.7,10.6-8.2,16.6-5.7c0.8-3.3,1.2-6.8,1.2-10.4
					S212.6,334.8,211.8,331.4z M166.8,360.1c-10.3,0-18.8-8.2-18.8-18.3s8.3-18.3,18.8-18.3c10.3,0,18.6,8.2,18.6,18.3
					C185.5,352,177.1,360.1,166.8,360.1z"/>
				<path id="XMLID_38_" fill="#2A2765" d="M153.8,344.6l6.6-3.9l3.2,6c0,0,1.4-4.5,5.2-9.5s7.8-6.9,7.8-6.9s-0.2,3.3,0,5.3
					c0.2,1.8,0.6,3.6,0.6,3.6s-4,1.8-8,6.6c-4.2,4.8-5.4,7.4-5.4,7.4s-2.5-3.3-5.1-5.4C156.2,345.8,153.8,344.6,153.8,344.6z"/>
			</g>
		</g>
	</g>
	<g id="XMLID_1_">
		<g id="XMLID_28_">
			<path id="XMLID_39_" fill="#F15D2F" d="M832,380c0,1.4-0.5,2.4-1.4,3.3s-2,1.2-3.4,1.2h-16.8c-1.4,0-2.5-0.5-3.4-1.2
				c-0.9-0.9-1.2-2-1.2-3.3v-54.6c0-1.4,0.5-2.4,1.2-3.3c0.9-0.9,2-1.2,3.4-1.2h16.8c1.4,0,2.5,0.5,3.4,1.2c0.9,0.9,1.4,2,1.4,3.3
				v14.8h-5.8v-14.3h-14.5v53.6h14.5v-15.7h5.8V380z"/>
			<path id="XMLID_36_" fill="#F15D2F" d="M864.6,384.6h-5.5v-34.7l-12.1,0.3v34.4h-5.5v-63.7h5.5v25.2c2.2-0.3,4.3-0.6,6.6-0.8
				c2.8-0.3,4.9-0.6,6.5-0.6c3.1,0,4.6,1.5,4.6,4.4L864.6,384.6L864.6,384.6z"/>
			<path id="XMLID_33_" fill="#F15D2F" d="M896,379.9c0,3-1.5,4.5-4.6,4.5h-13.2c-3.1,0-4.6-1.5-4.6-4.5v-30.3c0-3,1.5-4.5,4.6-4.5
				h13.2c3.1,0,4.6,1.5,4.6,4.5v14.2l-1.8,2h-15.4V380h11.8v-7.2h5.4V379.9z M890.7,361.3v-11.9h-11.8v11.9H890.7z"/>
			<path id="XMLID_31_" fill="#F15D2F" d="M927.5,379.9c0,3-1.5,4.5-4.6,4.5h-13.1c-3.1,0-4.6-1.5-4.6-4.5v-30.3
				c0-3,1.5-4.5,4.6-4.5h13.1c3.1,0,4.6,1.5,4.6,4.5v7.8h-5.4v-7.7h-11.4v30h11.4V371h5.4V379.9z"/>
			<path id="XMLID_29_" fill="#F15D2F" d="M959,384.6h-6l-11.1-20.2v20.2h-5.5v-63.7h5.5v40.5l10.3-16.3h6v0.2l-11.7,17.5L959,384.6
				z"/>
		</g>
		<g id="XMLID_3_">
			<path id="XMLID_26_" fill="#2A2765" d="M434.9,515.6c0,9.5-4.8,14.3-14.5,14.3h-47.8c-9.5,0-14.3-4.8-14.3-14.3v-37.3h23.8v31.8
				H411v-30.6l-47.7-44.4c-3.4-3.3-5.2-7.4-5.2-12.5v-34.7c0-9.5,4.8-14.3,14.3-14.3h47.8c9.7,0,14.5,4.7,14.5,14.2v34.9H411v-29.4
				h-29v28.2l47.7,44.1c3.4,3.2,5.2,7.4,5.2,12.7L434.9,515.6L434.9,515.6z"/>
			<path id="XMLID_23_" fill="#2A2765" d="M518.8,517.4c0,8.3-4.3,12.5-13.1,12.5h-40.1c-8.8,0-13.1-4.2-13.1-12.5v-75.9
				c0-8.3,4.3-12.5,13.1-12.5h40.1c8.8,0,13.1,4.2,13.1,12.5v37l-6.3,6.3h-37.7V513h21.8v-16.8H519v21.1L518.8,517.4L518.8,517.4z
				 M496.7,470v-24.2h-21.8V470H496.7z"/>
			<path id="XMLID_20_" fill="#2A2765" d="M602.2,517.4c0,8.3-4.3,12.5-12.9,12.5h-40.4c-8.8,0-13.1-4.2-13.1-12.5v-75.9
				c0-8.3,4.3-12.5,13.1-12.5h40.4c8.6,0,12.9,4.2,12.9,12.5v24h-22.6v-17.4h-20.9v62.8h20.9v-19.3h22.6V517.4L602.2,517.4z"/>
			<path id="XMLID_18_" fill="#2A2765" d="M687.2,529.8H664v-3.5c-5.4,0.9-10.8,1.7-16.1,2.6c-6.6,1.1-12,1.5-16.3,1.5
				c-8.5,0-12.8-4.2-12.8-12.5V429h23.1v81.8l22-0.5V429H687v100.8H687.2z"/>
			<path id="XMLID_16_" fill="#2A2765" d="M768.8,471.2h-23.1v-23.1l-18.4,0.5V530h-23.2V429.1h23.2v3.6c4.8-0.9,9.5-1.7,14.3-2.6
				c5.7-1.1,10.6-1.5,14.5-1.5c8.5,0,12.8,4.1,12.8,12.2L768.8,471.2L768.8,471.2z"/>
			<path id="XMLID_8_" fill="#2A2765" d="M805.6,414.6h-23.2v-23.5h23.2V414.6z M805.4,529.8h-22.9V429h22.9V529.8z"/>
			<path id="XMLID_6_" fill="#2A2765" d="M866.9,529.8h-25.8c-8.6,0-12.9-4.2-12.9-12.5v-68.7h-10.9v-19.5h10.9v-27.3h23.2v27.3
				h14.9v19.5h-14.9v61.9h15.5V529.8L866.9,529.8z"/>
			<path id="XMLID_4_" fill="#2A2765" d="M949.5,429.1l-25.8,99.5l-9.8,38.2H890l10.6-37.6l-26-100.1h23.8l13.5,66.3l13.5-66.3
				L949.5,429.1L949.5,429.1z"/>
		</g>
	</g>
</g>
</svg>
