<?xml version="1.0" encoding="utf-8"?>
<!-- Generator: Adobe Illustrator 18.0.0, SVG Export Plug-In . SVG Version: 6.00 Build 0)  -->
<!DOCTYPE svg PUBLIC "-//W3C//DTD SVG 1.1//EN" "http://www.w3.org/Graphics/SVG/1.1/DTD/svg11.dtd">
<svg version="1.1" id="Layer_1" xmlns="http://www.w3.org/2000/svg" xmlns:xlink="http://www.w3.org/1999/xlink" x="0px" y="0px"
	 viewBox="0 0 841.9 595.3" enable-background="new 0 0 841.9 595.3" xml:space="preserve">
<g id="XMLID_2_">
	<g id="XMLID_41_">
		<path id="XMLID_10_" fill="#2A2765" d="M347.2,222c0,0-33-9-65.3-25.3c-28.5-14.4-53.8-40.6-53.8-40.6s-25.4,26.3-53.8,40.6
			C142,213,109,222,109,222S102.6,288,141.8,357c37.5,66.2,86.4,82.2,86.4,82.2s48.8-16,86.4-82.2C353.6,288,347.2,222,347.2,222z"
			/>
		<g id="XMLID_22_">
			<path id="XMLID_45_" fill="#F15D2F" d="M274.2,357.5l-24.3-37.8c17-15.2,21.7-40.7,9.8-61.2c-13.5-23.5-43.6-31.5-67.1-18
				c-23.5,13.5-31.5,43.7-18,67.1c12.7,22,39.9,30.4,62.6,20.3l24.3,37.7c2.2,3.5,6.8,4.4,10.3,2.2l0.1-0.1
				C275.4,365.5,276.4,360.9,274.2,357.5z"/>
			<g id="XMLID_11_">
				<path id="XMLID_13_" fill="#2A2765" d="M246.4,278.4c-4,1.6-8.6,0.1-10.8-3.8c-2.2-3.8-1.2-8.6,2.2-11.3
					c-3.3-3.1-7.4-5.5-11.9-6.9c-0.6,4.2-4.3,7.5-8.7,7.5c-4.4,0-8.1-3.3-8.7-7.5c-4.5,1.4-8.5,3.7-11.9,6.9
					c3.4,2.7,4.4,7.5,2.2,11.3c-2.2,3.8-6.9,5.4-10.8,3.8c-0.5,2.2-0.8,4.5-0.8,6.9c0,2.4,0.3,4.7,0.8,6.9c4-1.6,8.6-0.1,10.8,3.8
					c2.2,3.8,1.2,8.6-2.2,11.3c3.3,3.1,7.4,5.5,11.9,6.9c0.6-4.2,4.3-7.5,8.7-7.5c4.4,0,8.1,3.3,8.7,7.5c4.5-1.4,8.5-3.7,11.9-6.9
					c-3.4-2.7-4.4-7.4-2.2-11.3c2.2-3.8,6.9-5.4,10.8-3.8c0.5-2.2,0.8-4.5,0.8-6.9C247.2,282.9,246.9,280.6,246.4,278.4z
					 M217.1,297.4c-6.7,0-12.2-5.4-12.2-12.1c0-6.7,5.4-12.1,12.2-12.1c6.7,0,12.1,5.4,12.1,12.1C229.3,292,223.8,297.4,217.1,297.4
					z"/>
				<path id="XMLID_38_" fill="#2A2765" d="M208.7,287.1l4.3-2.6l2.1,4c0,0,0.9-3,3.4-6.3c2.5-3.3,5.1-4.6,5.1-4.6s-0.1,2.2,0,3.5
					c0.1,1.2,0.4,2.4,0.4,2.4s-2.6,1.2-5.2,4.4c-2.7,3.2-3.5,4.9-3.5,4.9s-1.6-2.2-3.3-3.6C210.2,287.9,208.7,287.1,208.7,287.1z"/>
			</g>
		</g>
	</g>
	<g id="XMLID_1_">
		<g id="XMLID_28_">
			<path id="XMLID_39_" fill="#F15D2F" d="M649.8,310.6c0,0.9-0.3,1.6-0.9,2.2c-0.6,0.6-1.3,0.8-2.2,0.8h-10.9
				c-0.9,0-1.6-0.3-2.2-0.8c-0.6-0.6-0.8-1.3-0.8-2.2v-36.2c0-0.9,0.3-1.6,0.8-2.2c0.6-0.6,1.3-0.8,2.2-0.8h10.9
				c0.9,0,1.6,0.3,2.2,0.8c0.6,0.6,0.9,1.3,0.9,2.2v9.8H646v-9.5h-9.4v35.5h9.4v-10.4h3.8V310.6z"/>
			<path id="XMLID_36_" fill="#F15D2F" d="M671,313.6h-3.6v-23l-7.9,0.2v22.8h-3.6v-42.2h3.6v16.7c1.4-0.2,2.8-0.4,4.3-0.5
				c1.8-0.2,3.2-0.4,4.2-0.4c2,0,3,1,3,2.9V313.6z"/>
			<path id="XMLID_33_" fill="#F15D2F" d="M691.4,310.5c0,2-1,3-3,3h-8.6c-2,0-3-1-3-3v-20.1c0-2,1-3,3-3h8.6c2,0,3,1,3,3v9.4
				l-1.2,1.3h-10v9.5h7.7v-4.8h3.5V310.5z M688,298.2v-7.9h-7.7v7.9H688z"/>
			<path id="XMLID_31_" fill="#F15D2F" d="M711.9,310.5c0,2-1,3-3,3h-8.5c-2,0-3-1-3-3v-20.1c0-2,1-3,3-3h8.5c2,0,3,1,3,3v5.2h-3.5
				v-5.1h-7.4v19.9h7.4v-5.8h3.5V310.5z"/>
			<path id="XMLID_29_" fill="#F15D2F" d="M732.4,313.6h-3.9l-7.2-13.4v13.4h-3.6v-42.2h3.6v26.8l6.7-10.8h3.9v0.1l-7.6,11.6
				L732.4,313.6z"/>
		</g>
		<g id="XMLID_3_">
			<path id="XMLID_26_" fill="#2A2765" d="M391.5,400.4c0,6.3-3.1,9.5-9.4,9.5h-31.1c-6.2,0-9.3-3.2-9.3-9.5v-24.7h15.5v21.1H376
				v-20.3l-31-29.4c-2.2-2.2-3.4-4.9-3.4-8.3v-23c0-6.3,3.1-9.5,9.3-9.5h31.1c6.3,0,9.4,3.1,9.4,9.4v23.1H376v-19.5h-18.9v18.7
				l31,29.2c2.2,2.1,3.4,4.9,3.4,8.4V400.4z"/>
			<path id="XMLID_23_" fill="#2A2765" d="M446.1,401.6c0,5.5-2.8,8.3-8.5,8.3h-26.1c-5.7,0-8.5-2.8-8.5-8.3v-50.3
				c0-5.5,2.8-8.3,8.5-8.3h26.1c5.7,0,8.5,2.8,8.5,8.3v24.5L442,380h-24.5v18.7h14.2v-11.1h14.5V401.6z M431.7,370.2v-16h-14.2v16
				H431.7z"/>
			<path id="XMLID_20_" fill="#2A2765" d="M500.3,401.6c0,5.5-2.8,8.3-8.4,8.3h-26.3c-5.7,0-8.5-2.8-8.5-8.3v-50.3
				c0-5.5,2.8-8.3,8.5-8.3h26.3c5.6,0,8.4,2.8,8.4,8.3v15.9h-14.7v-11.5H472v41.6h13.6v-12.8h14.7V401.6z"/>
			<path id="XMLID_18_" fill="#2A2765" d="M555.6,409.8h-15.1v-2.3c-3.5,0.6-7,1.1-10.5,1.7c-4.3,0.7-7.8,1-10.6,1
				c-5.5,0-8.3-2.8-8.3-8.3v-58.9h15v54.2l14.3-0.3v-53.9h15.1V409.8z"/>
			<path id="XMLID_16_" fill="#2A2765" d="M608.7,371h-15v-15.3l-12,0.3v53.9h-15.1v-66.8h15.1v2.4c3.1-0.6,6.2-1.1,9.3-1.7
				c3.7-0.7,6.9-1,9.4-1c5.5,0,8.3,2.7,8.3,8.1V371z"/>
			<path id="XMLID_8_" fill="#2A2765" d="M632.6,333.5h-15.1v-15.6h15.1V333.5z M632.5,409.8h-14.9v-66.8h14.9V409.8z"/>
			<path id="XMLID_6_" fill="#2A2765" d="M672.5,409.8h-16.8c-5.6,0-8.4-2.8-8.4-8.3V356h-7.1v-12.9h7.1v-18.1h15.1v18.1h9.7V356
				h-9.7v41h10.1V409.8z"/>
			<path id="XMLID_4_" fill="#2A2765" d="M726.2,343.1L709.4,409l-6.4,25.3h-15.5l6.9-24.9l-16.9-66.3h15.5l8.8,43.9l8.8-43.9H726.2
				z"/>
		</g>
	</g>
</g>
</svg>
